<?xml version="1.0" encoding="UTF-8" standalone="no"?>
<svg
   xmlns:dc="http://purl.org/dc/elements/1.1/"
   xmlns:cc="http://creativecommons.org/ns#"
   xmlns:rdf="http://www.w3.org/1999/02/22-rdf-syntax-ns#"
   xmlns:svg="http://www.w3.org/2000/svg"
   xmlns="http://www.w3.org/2000/svg"
   xmlns:sodipodi="http://sodipodi.sourceforge.net/DTD/sodipodi-0.dtd"
   xmlns:inkscape="http://www.inkscape.org/namespaces/inkscape"
   version="1.1"
   id="svg2"
   viewBox="0 0 32.2 32.2"
   height="32.2"
   width="32.2"
   inkscape:version="0.91+devel r14557"
   sodipodi:docname="Logo.svg">
  <sodipodi:namedview
     pagecolor="#ffffff"
     bordercolor="#666666"
     borderopacity="1"
     objecttolerance="10"
     gridtolerance="10"
     guidetolerance="10"
     inkscape:pageopacity="0"
     inkscape:pageshadow="2"
     inkscape:window-width="1920"
     inkscape:window-height="1014"
     id="namedview4968"
     showgrid="false"
     inkscape:zoom="26.36"
     inkscape:cx="16.157654"
     inkscape:cy="22.037334"
     inkscape:window-x="0"
     inkscape:window-y="27"
     inkscape:window-maximized="1"
     inkscape:current-layer="layer1" />
  <defs
     id="defs4" />
  <metadata
     id="metadata7">
    <rdf:RDF>
      <cc:Work
         rdf:about="">
        <dc:format>image/svg+xml</dc:format>
        <dc:type
           rdf:resource="http://purl.org/dc/dcmitype/StillImage" />
        <dc:title />
      </cc:Work>
    </rdf:RDF>
  </metadata>
  <g
     id="layer1"
     transform="translate(-111.90153,-908.26066)">
    <g
       id="Body">
      <path
         style="fill:none;fill-opacity:1;stroke:#000000;stroke-width:0.30000001;stroke-miterlimit:4;stroke-dasharray:none;stroke-opacity:1"
         d="M 143.94847,924.36218 A 15.948474,15.948474 0 0 1 128,940.31066 15.948474,15.948474 0 0 1 112.05153,924.36218 15.948474,15.948474 0 0 1 128,908.41371 a 15.948474,15.948474 0 0 1 15.94847,15.94847 z"
         id="path4183" />
      <path
         d="m 130.27762,908.57943 -0.25544,2.00005"
         style="fill:#40bec0;fill-opacity:1;stroke:#000000;stroke-width:0.2;stroke-miterlimit:4;stroke-dasharray:none"
         id="path4420" />
      <path
         d="m 124.59396,911.81541 2.00023,0.75527"
         style="fill:#40bec0;fill-opacity:1;stroke:#000000;stroke-width:0.2;stroke-miterlimit:4;stroke-dasharray:none"
         id="path4422" />
      <path
         d="m 126.59419,912.57068 3.42799,-1.9912"
         style="fill:#40bec0;fill-opacity:1;stroke:#000000;stroke-width:0.2;stroke-miterlimit:4;stroke-dasharray:none"
         id="path4424" />
      <path
         d="m 130.02218,910.57948 2.57789,2.65668"
         style="fill:#40bec0;fill-opacity:1;stroke:#000000;stroke-width:0.2;stroke-miterlimit:4;stroke-dasharray:none"
         id="path4426" />
      <path
         d="m 132.60007,913.23616 2.22895,-0.2688"
         style="fill:#40bec0;fill-opacity:1;stroke:#000000;stroke-width:0.2;stroke-miterlimit:4;stroke-dasharray:none"
         id="path4428" />
      <path
         d="m 121.62775,914.58768 2.96621,-2.77227"
         style="fill:#40bec0;fill-opacity:1;stroke:#000000;stroke-width:0.2;stroke-miterlimit:4;stroke-dasharray:none"
         id="path4430" />
      <path
         d="m 117.76693,913.9014 3.86082,0.68628"
         style="fill:#40bec0;fill-opacity:1;stroke:#000000;stroke-width:0.2;stroke-miterlimit:4;stroke-dasharray:none"
         id="path4432" />
      <path
         d="m 134.82902,912.96736 1.8872,3.00362"
         style="fill:#40bec0;fill-opacity:1;stroke:#000000;stroke-width:0.2;stroke-miterlimit:4;stroke-dasharray:none"
         id="path4434" />
      <path
         d="m 132.60007,913.23616 -1.62275,3.15878"
         style="fill:#40bec0;fill-opacity:1;stroke:#000000;stroke-width:0.2;stroke-miterlimit:4;stroke-dasharray:none"
         id="path4436" />
      <path
         d="m 126.59419,912.57068 1.15657,3.80011"
         style="fill:#40bec0;fill-opacity:1;stroke:#000000;stroke-width:0.2;stroke-miterlimit:4;stroke-dasharray:none"
         id="path4438" />
      <path
         d="m 127.75076,916.37079 3.22656,0.0242"
         style="fill:#40bec0;fill-opacity:1;stroke:#000000;stroke-width:0.2;stroke-miterlimit:4;stroke-dasharray:none"
         id="path4440" />
      <path
         d="m 127.75076,916.37079 -1.36826,1.70351"
         style="fill:#40bec0;fill-opacity:1;stroke:#000000;stroke-width:0.2;stroke-miterlimit:4;stroke-dasharray:none"
         id="path4442" />
      <path
         d="m 136.71622,915.97098 4.97357,0.20952"
         style="fill:#40bec0;fill-opacity:1;stroke:#000000;stroke-width:0.2;stroke-miterlimit:4;stroke-dasharray:none"
         id="path4444" />
      <path
         d="m 121.62775,914.58768 1.72227,3.58675"
         style="fill:#40bec0;fill-opacity:1;stroke:#000000;stroke-width:0.2;stroke-miterlimit:4;stroke-dasharray:none"
         id="path4446" />
      <path
         d="m 123.35002,918.17443 3.03248,-0.10013"
         style="fill:#40bec0;fill-opacity:1;stroke:#000000;stroke-width:0.2;stroke-miterlimit:4;stroke-dasharray:none"
         id="path4448" />
      <path
         d="m 130.97732,916.39494 1.66474,2.49288"
         style="fill:#40bec0;fill-opacity:1;stroke:#000000;stroke-width:0.2;stroke-miterlimit:4;stroke-dasharray:none"
         id="path4450" />
      <path
         d="m 132.64206,918.88782 2.08175,0.11906"
         style="fill:#40bec0;fill-opacity:1;stroke:#000000;stroke-width:0.2;stroke-miterlimit:4;stroke-dasharray:none"
         id="path4452" />
      <path
         d="m 136.71622,915.97098 -1.99241,3.0359"
         style="fill:#40bec0;fill-opacity:1;stroke:#000000;stroke-width:0.2;stroke-miterlimit:4;stroke-dasharray:none"
         id="path4454" />
      <path
         d="m 117.76693,913.9014 -0.35958,5.17678"
         style="fill:#40bec0;fill-opacity:1;stroke:#000000;stroke-width:0.2;stroke-miterlimit:4;stroke-dasharray:none"
         id="path4456" />
      <path
         d="m 123.35002,918.17443 -1.39368,1.91062"
         style="fill:#40bec0;fill-opacity:1;stroke:#000000;stroke-width:0.2;stroke-miterlimit:4;stroke-dasharray:none"
         id="path4458" />
      <path
         d="m 117.40735,919.07818 1.73419,1.39755"
         style="fill:#40bec0;fill-opacity:1;stroke:#000000;stroke-width:0.2;stroke-miterlimit:4;stroke-dasharray:none"
         id="path4460" />
      <path
         d="m 119.14154,920.47573 2.8148,-0.39068"
         style="fill:#40bec0;fill-opacity:1;stroke:#000000;stroke-width:0.2;stroke-miterlimit:4;stroke-dasharray:none"
         id="path4462" />
      <path
         d="m 134.72381,919.00688 1.68449,2.10782"
         style="fill:#40bec0;fill-opacity:1;stroke:#000000;stroke-width:0.2;stroke-miterlimit:4;stroke-dasharray:none"
         id="path4464" />
      <path
         d="m 136.4083,921.1147 2.32219,0.0893"
         style="fill:#40bec0;fill-opacity:1;stroke:#000000;stroke-width:0.2;stroke-miterlimit:4;stroke-dasharray:none"
         id="path4466" />
      <path
         d="m 142.03469,916.7877 -3.3042,4.41633"
         style="fill:#40bec0;fill-opacity:1;stroke:#000000;stroke-width:0.2;stroke-miterlimit:4;stroke-dasharray:none"
         id="path4468" />
      <path
         d="m 132.64206,918.88782 -2.05139,2.91446"
         style="fill:#40bec0;fill-opacity:1;stroke:#000000;stroke-width:0.2;stroke-miterlimit:4;stroke-dasharray:none"
         id="path4470" />
      <path
         d="m 126.3825,918.0743 1.64823,3.64397"
         style="fill:#40bec0;fill-opacity:1;stroke:#000000;stroke-width:0.2;stroke-miterlimit:4;stroke-dasharray:none"
         id="path4472" />
      <path
         d="m 128.03073,921.71827 2.55994,0.084"
         style="fill:#40bec0;fill-opacity:1;stroke:#000000;stroke-width:0.2;stroke-miterlimit:4;stroke-dasharray:none"
         id="path4474" />
      <path
         d="m 123.64859,909.01913 0.94537,2.79628"
         style="fill:#40bec0;fill-opacity:1;stroke:#000000;stroke-width:0.2;stroke-miterlimit:4;stroke-dasharray:none"
         id="path4476" />
      <path
         d="m 121.95634,920.08505 1.87395,3.70225"
         style="fill:#40bec0;fill-opacity:1;stroke:#000000;stroke-width:0.2;stroke-miterlimit:4;stroke-dasharray:none"
         id="path4478" />
      <path
         d="m 123.83029,923.7873 2.32979,0.23343"
         style="fill:#40bec0;fill-opacity:1;stroke:#000000;stroke-width:0.2;stroke-miterlimit:4;stroke-dasharray:none"
         id="path4480" />
      <path
         d="m 128.03073,921.71827 -1.87065,2.30246"
         style="fill:#40bec0;fill-opacity:1;stroke:#000000;stroke-width:0.2;stroke-miterlimit:4;stroke-dasharray:none"
         id="path4482" />
      <path
         d="m 112.5087,920.53486 4.89865,-1.45668"
         style="fill:#40bec0;fill-opacity:1;stroke:#000000;stroke-width:0.2;stroke-miterlimit:4;stroke-dasharray:none"
         id="path4484" />
      <path
         d="m 136.4083,921.1147 -1.6901,3.50677"
         style="fill:#40bec0;fill-opacity:1;stroke:#000000;stroke-width:0.2;stroke-miterlimit:4;stroke-dasharray:none"
         id="path4486" />
      <path
         d="m 130.59067,921.80228 1.81679,2.91418"
         style="fill:#40bec0;fill-opacity:1;stroke:#000000;stroke-width:0.2;stroke-miterlimit:4;stroke-dasharray:none"
         id="path4488" />
      <path
         d="m 132.40746,924.71646 2.31074,-0.095"
         style="fill:#40bec0;fill-opacity:1;stroke:#000000;stroke-width:0.2;stroke-miterlimit:4;stroke-dasharray:none"
         id="path4490" />
      <path
         d="m 119.14154,920.47573 -0.98531,4.33835"
         style="fill:#40bec0;fill-opacity:1;stroke:#000000;stroke-width:0.2;stroke-miterlimit:4;stroke-dasharray:none"
         id="path4492" />
      <path
         d="m 138.73049,921.20403 2.17448,3.61317"
         style="fill:#40bec0;fill-opacity:1;stroke:#000000;stroke-width:0.2;stroke-miterlimit:4;stroke-dasharray:none"
         id="path4494" />
      <path
         d="m 112.17037,922.41932 4.71967,2.91712"
         style="fill:#40bec0;fill-opacity:1;stroke:#000000;stroke-width:0.2;stroke-miterlimit:4;stroke-dasharray:none"
         id="path4496" />
      <path
         d="m 116.89004,925.33644 1.26619,-0.52236"
         style="fill:#40bec0;fill-opacity:1;stroke:#000000;stroke-width:0.2;stroke-miterlimit:4;stroke-dasharray:none"
         id="path4498" />
      <path
         d="m 118.15623,924.81408 3.21981,1.3591"
         style="fill:#40bec0;fill-opacity:1;stroke:#000000;stroke-width:0.2;stroke-miterlimit:4;stroke-dasharray:none"
         id="path4500" />
      <path
         d="m 121.37604,926.17318 2.45425,-2.38588"
         style="fill:#40bec0;fill-opacity:1;stroke:#000000;stroke-width:0.2;stroke-miterlimit:4;stroke-dasharray:none"
         id="path4502" />
      <path
         d="m 134.7182,924.62147 2.07585,2.10893"
         style="fill:#40bec0;fill-opacity:1;stroke:#000000;stroke-width:0.2;stroke-miterlimit:4;stroke-dasharray:none"
         id="path4504" />
      <path
         d="m 136.79405,926.7304 4.11092,-1.9132"
         style="fill:#40bec0;fill-opacity:1;stroke:#000000;stroke-width:0.2;stroke-miterlimit:4;stroke-dasharray:none"
         id="path4506" />
      <path
         d="m 126.16008,924.02073 1.39645,3.12167"
         style="fill:#40bec0;fill-opacity:1;stroke:#000000;stroke-width:0.2;stroke-miterlimit:4;stroke-dasharray:none"
         id="path4508" />
      <path
         d="m 127.55653,927.1424 2.96901,0.48199"
         style="fill:#40bec0;fill-opacity:1;stroke:#000000;stroke-width:0.2;stroke-miterlimit:4;stroke-dasharray:none"
         id="path4510" />
      <path
         d="m 132.40746,924.71646 -1.88192,2.90793"
         style="fill:#40bec0;fill-opacity:1;stroke:#000000;stroke-width:0.2;stroke-miterlimit:4;stroke-dasharray:none"
         id="path4512" />
      <path
         d="m 116.89004,925.33644 -0.99218,3.12232"
         style="fill:#40bec0;fill-opacity:1;stroke:#000000;stroke-width:0.2;stroke-miterlimit:4;stroke-dasharray:none"
         id="path4514" />
      <path
         d="m 136.79405,926.7304 -0.20109,1.95619"
         style="fill:#40bec0;fill-opacity:1;stroke:#000000;stroke-width:0.2;stroke-miterlimit:4;stroke-dasharray:none"
         id="path4516" />
      <path
         d="m 121.37604,926.17318 0.66615,2.96123"
         style="fill:#40bec0;fill-opacity:1;stroke:#000000;stroke-width:0.2;stroke-miterlimit:4;stroke-dasharray:none"
         id="path4518" />
      <path
         d="m 122.04219,929.13441 3.21843,0.65675"
         style="fill:#40bec0;fill-opacity:1;stroke:#000000;stroke-width:0.2;stroke-miterlimit:4;stroke-dasharray:none"
         id="path4520" />
      <path
         d="m 127.55653,927.1424 -2.29591,2.64876"
         style="fill:#40bec0;fill-opacity:1;stroke:#000000;stroke-width:0.2;stroke-miterlimit:4;stroke-dasharray:none"
         id="path4522" />
      <path
         d="m 130.52554,927.62439 1.14607,2.28398"
         style="fill:#40bec0;fill-opacity:1;stroke:#000000;stroke-width:0.2;stroke-miterlimit:4;stroke-dasharray:none"
         id="path4524" />
      <path
         d="m 131.67161,929.90837 2.60661,0.57415"
         style="fill:#40bec0;fill-opacity:1;stroke:#000000;stroke-width:0.2;stroke-miterlimit:4;stroke-dasharray:none"
         id="path4526" />
      <path
         d="m 134.27822,930.48252 2.31474,-1.79593"
         style="fill:#40bec0;fill-opacity:1;stroke:#000000;stroke-width:0.2;stroke-miterlimit:4;stroke-dasharray:none"
         id="path4528" />
      <path
         d="m 115.89786,928.45876 2.00679,2.74096"
         style="fill:#40bec0;fill-opacity:1;stroke:#000000;stroke-width:0.2;stroke-miterlimit:4;stroke-dasharray:none"
         id="path4530" />
      <path
         d="m 117.90465,931.19972 2.00609,0.13849"
         style="fill:#40bec0;fill-opacity:1;stroke:#000000;stroke-width:0.2;stroke-miterlimit:4;stroke-dasharray:none"
         id="path4532" />
      <path
         d="m 122.04219,929.13441 -2.13145,2.2038"
         style="fill:#40bec0;fill-opacity:1;stroke:#000000;stroke-width:0.2;stroke-miterlimit:4;stroke-dasharray:none"
         id="path4534" />
      <path
         d="m 131.67161,929.90837 -2.28464,3.33417"
         style="fill:#40bec0;fill-opacity:1;stroke:#000000;stroke-width:0.2;stroke-miterlimit:4;stroke-dasharray:none"
         id="path4536" />
      <path
         d="m 125.26062,929.79116 1.37755,3.33096"
         style="fill:#40bec0;fill-opacity:1;stroke:#000000;stroke-width:0.2;stroke-miterlimit:4;stroke-dasharray:none"
         id="path4538" />
      <path
         d="m 126.63817,933.12212 2.7488,0.12042"
         style="fill:#40bec0;fill-opacity:1;stroke:#000000;stroke-width:0.2;stroke-miterlimit:4;stroke-dasharray:none"
         id="path4540" />
      <path
         d="m 134.27822,930.48252 1.04822,3.42568"
         style="fill:#40bec0;fill-opacity:1;stroke:#000000;stroke-width:0.2;stroke-miterlimit:4;stroke-dasharray:none"
         id="path4542" />
      <path
         d="m 119.91074,931.33821 1.65574,3.64235"
         style="fill:#40bec0;fill-opacity:1;stroke:#000000;stroke-width:0.2;stroke-miterlimit:4;stroke-dasharray:none"
         id="path4544" />
      <path
         d="m 121.56648,934.98056 3.3786,0.23149"
         style="fill:#40bec0;fill-opacity:1;stroke:#000000;stroke-width:0.2;stroke-miterlimit:4;stroke-dasharray:none"
         id="path4546" />
      <path
         d="m 126.63817,933.12212 -1.69309,2.08993"
         style="fill:#40bec0;fill-opacity:1;stroke:#000000;stroke-width:0.2;stroke-miterlimit:4;stroke-dasharray:none"
         id="path4548" />
      <path
         d="m 129.38697,933.24254 2.90565,4.08156"
         style="fill:#40bec0;fill-opacity:1;stroke:#000000;stroke-width:0.2;stroke-miterlimit:4;stroke-dasharray:none"
         id="path4550" />
      <path
         d="m 135.32644,933.9082 -3.03382,3.4159"
         style="fill:#40bec0;fill-opacity:1;stroke:#000000;stroke-width:0.2;stroke-miterlimit:4;stroke-dasharray:none"
         id="path4552" />
      <path
         d="m 135.32644,933.9082 4.96968,0.61035"
         style="fill:#40bec0;fill-opacity:1;stroke:#000000;stroke-width:0.2;stroke-miterlimit:4;stroke-dasharray:none"
         id="path4554" />
      <path
         d="m 136.59296,928.68659 5.27273,3.55547"
         style="fill:#40bec0;fill-opacity:1;stroke:#000000;stroke-width:0.2;stroke-miterlimit:4;stroke-dasharray:none"
         id="path4556" />
      <path
         d="m 136.35053,910.77472 -1.52151,2.19264"
         style="fill:#40bec0;fill-opacity:1;stroke:#000000;stroke-width:0.2;stroke-miterlimit:4;stroke-dasharray:none"
         id="path4558" />
      <path
         d="m 124.94508,935.21205 1.61013,5.04291"
         style="fill:#40bec0;fill-opacity:1;stroke:#000000;stroke-width:0.2;stroke-miterlimit:4;stroke-dasharray:none"
         id="path4560" />
      <path
         d="m 132.29262,937.3241 -0.0863,2.42163"
         style="fill:#40bec0;fill-opacity:1;stroke:#000000;stroke-width:0.2;stroke-miterlimit:4;stroke-dasharray:none"
         id="path4562" />
      <path
         d="m 116.87916,912.9308 0.88777,0.9706"
         style="fill:#40bec0;fill-opacity:1;stroke:#000000;stroke-width:0.2;stroke-miterlimit:4;stroke-dasharray:none"
         id="path4564" />
      <path
         d="m 112.73571,928.98317 3.16215,-0.52441"
         style="fill:#40bec0;fill-opacity:1;stroke:#000000;stroke-width:0.2;stroke-miterlimit:4;stroke-dasharray:none"
         id="path4570" />
      <path
         d="m 140.90497,924.8172 2.98625,0.89969"
         style="fill:#40bec0;fill-opacity:1;stroke:#000000;stroke-width:0.2;stroke-miterlimit:4;stroke-dasharray:none"
         id="path4572" />
      <path
         d="m 117.90465,931.19972 -2.54441,2.88773"
         style="fill:#40bec0;fill-opacity:1;stroke:#000000;stroke-width:0.2;stroke-miterlimit:4;stroke-dasharray:none"
         id="path4576" />
      <path
         d="m 121.56648,934.98056 -2.1193,2.84264"
         style="fill:#40bec0;fill-opacity:1;stroke:#000000;stroke-width:0.2;stroke-miterlimit:4;stroke-dasharray:none"
         id="path4578" />
      <path
         style="fill:#40bec0;fill-opacity:1;stroke:#000000;stroke-width:0.00322036;stroke-miterlimit:4;stroke-dasharray:none;stroke-opacity:1"
         d="m 122.04763,132.83472 c -0.66199,0.68782 -1.33606,1.36489 -1.98292,2.06719 -0.0458,0.0454 -0.0994,0.11023 -0.0493,0.17411 0.51411,1.15682 1.03371,2.31143 1.56918,3.45849 0.0725,0.0619 0.18548,0.0298 0.27414,0.0509 1.00863,0.0812 2.01899,0.14064 3.02789,0.21738 0.10029,-0.0463 0.15117,-0.16284 0.22866,-0.23861 0.46908,-0.58206 0.95161,-1.15392 1.40278,-1.75004 0.0522,-0.0526 0.0528,-0.12541 0.0127,-0.18567 -0.42911,-1.04656 -0.85949,-2.09266 -1.29747,-3.13553 -0.085,-0.0668 -0.21211,-0.0507 -0.31283,-0.086 -0.94484,-0.19484 -1.89038,-0.38629 -2.8356,-0.57927 -0.0124,0.002 -0.0248,0.005 -0.0372,0.007 z"
         id="path4866"
         transform="translate(0,796.3622)" />
      <path
         style="fill:#408ec0;fill-opacity:1;stroke:#000000;stroke-width:0.00227714;stroke-miterlimit:4;stroke-dasharray:none;stroke-opacity:1"
         d="m 117.9424,134.891 c -0.0793,0.0363 -0.1213,0.12527 -0.1847,0.18366 -0.76883,0.87306 -1.53839,1.74557 -2.30077,2.62424 -0.0313,0.0702 0.0543,0.11959 0.0836,0.17431 1.08403,1.36527 2.39222,2.55341 3.85834,3.4967 0.079,0.0153 0.10242,-0.0878 0.15057,-0.13111 0.65172,-0.86508 1.29687,-1.73509 1.94488,-2.60295 0.0255,-0.0711 -0.0457,-0.13445 -0.0632,-0.20145 -0.51258,-1.12757 -1.02515,-2.25513 -1.53773,-3.3827 -0.0514,-0.0557 -0.14093,-0.0296 -0.20915,-0.0447 -0.58046,-0.0406 -1.16095,-0.0825 -1.74184,-0.11602 z"
         id="path4868"
         transform="translate(0,796.3622)" />
      <path
         style="fill:#5240c0;fill-opacity:1;stroke:#000000;stroke-width:0.00227714;stroke-miterlimit:4;stroke-dasharray:none;stroke-opacity:1"
         d="m 121.59342,138.67879 c -0.14284,0.16018 -0.26066,0.342 -0.39326,0.51091 -0.55025,0.73835 -1.10368,1.47447 -1.64722,2.21774 -0.0273,0.0779 0.0773,0.0983 0.12182,0.1371 1.95312,1.20304 4.16881,1.97886 6.44812,2.24305 0.0999,0.004 0.20252,0.0409 0.30176,0.0203 0.0751,-0.043 0.002,-0.13159 -0.006,-0.19137 -0.50199,-1.562 -0.99458,-3.12708 -1.5032,-4.68691 -0.0446,-0.0587 -0.13169,-0.0287 -0.19549,-0.0445 -1.03055,-0.0772 -2.06183,-0.14445 -3.09279,-0.21603 -0.0111,0.003 -0.0222,0.007 -0.0333,0.01 z"
         id="path4870"
         transform="translate(0,796.3622)" />
      <path
         style="fill:#40c091;fill-opacity:1;stroke:#000000;stroke-width:0.00455428;stroke-miterlimit:4;stroke-dasharray:none;stroke-opacity:1"
         d="m 126.7463,136.81101 c -0.16173,0.039 -0.23882,0.22025 -0.35225,0.32712 -0.45984,0.56315 -0.92257,1.12451 -1.36752,1.69942 -0.003,0.15169 0.0861,0.29908 0.11609,0.44838 0.47232,1.5084 0.93909,3.01914 1.44063,4.51794 0.10304,0.0755 0.25473,0.0401 0.37647,0.0642 1.08785,0.0445 2.18231,0.0377 3.26126,-0.12407 0.63923,-0.0947 1.27847,-0.21008 1.89957,-0.38938 0.0769,-0.0858 0.0248,-0.22861 0.0495,-0.33576 0.0265,-0.67762 0.0616,-1.35771 0.0718,-2.03419 -0.75716,-1.0951 -1.541,-2.17423 -2.3094,-3.26247 -0.19239,-0.25907 -0.36643,-0.53811 -0.57064,-0.7846 -0.41868,-0.045 -0.84933,-0.0436 -1.27247,-0.0701 -0.44767,-0.0192 -0.89523,-0.0421 -1.34305,-0.0565 z"
         id="path4872"
         transform="translate(0,796.3622)" />
      <path
         style="fill:#40bec0;fill-opacity:1;stroke:#000000;stroke-width:0.00455428;stroke-miterlimit:4;stroke-dasharray:none;stroke-opacity:1"
         d="m 127.6342,130.84626 c -0.17085,0.0787 -0.27168,0.26074 -0.40552,0.38786 -0.62749,0.71802 -1.25844,1.43497 -1.87178,2.16414 -0.0164,0.17466 0.10127,0.33488 0.14879,0.49869 0.37993,0.92879 0.76124,1.8572 1.15494,2.78022 0.10804,0.0721 0.26205,0.0272 0.38697,0.0529 0.76552,0.0385 1.53123,0.0812 2.29774,0.0924 0.13541,-0.10493 0.20603,-0.28798 0.31665,-0.42276 0.64699,-0.94447 1.29402,-1.88892 1.94105,-2.83336 -0.009,-0.15009 -0.13228,-0.28253 -0.1857,-0.42567 -0.30522,-0.60518 -0.61046,-1.21037 -0.9157,-1.81555 -0.17733,-0.0782 -0.39069,-0.0705 -0.58172,-0.11608 -0.76177,-0.12079 -1.5219,-0.25814 -2.28572,-0.36276 z"
         id="path4874"
         transform="translate(0,796.3622)" />
      <path
         style="fill:#40bec0;fill-opacity:1;stroke:#000000;stroke-width:0.00455428;stroke-miterlimit:4;stroke-dasharray:none;stroke-opacity:1"
         d="m 123.92003,127.48586 c -0.17815,0.0562 -0.29214,0.23093 -0.43496,0.34372 -0.68422,0.65633 -1.365,1.31628 -2.0397,1.98239 -0.0196,0.16307 0.0667,0.33344 0.0877,0.49928 0.17965,0.78955 0.34677,1.58225 0.541,2.36829 0.0922,0.0901 0.24935,0.0764 0.36687,0.12007 0.91951,0.20046 1.84139,0.39136 2.76566,0.56805 0.13224,-0.0671 0.20858,-0.22017 0.31802,-0.3202 0.63193,-0.72338 1.27257,-1.44001 1.88176,-2.18268 0.0771,-0.0736 0.0882,-0.18268 0.0205,-0.26702 -0.43347,-0.95213 -0.84468,-1.91531 -1.29288,-2.86076 -0.13962,-0.0692 -0.3152,-0.0471 -0.46787,-0.0795 -0.58131,-0.0628 -1.16265,-0.13309 -1.74611,-0.17165 z"
         id="path4876"
         transform="translate(0,796.3622)" />
      <path
         style="fill:#c08840;fill-opacity:1;stroke:#000000;stroke-width:0.00455428;stroke-miterlimit:4;stroke-dasharray:none;stroke-opacity:1"
         d="m 118.18415,128.52218 c -0.36037,0.0885 -0.69463,0.26419 -1.03961,0.39906 -0.10507,0.0463 -0.24583,0.0759 -0.25326,0.21574 -0.31609,0.97093 -0.632,1.94245 -0.92426,2.92074 0.0674,0.17113 0.2126,0.30937 0.30911,0.46741 0.5405,0.74603 1.07154,1.50003 1.63211,2.2308 0.22061,0.0752 0.4657,0.0553 0.69574,0.086 0.42506,0.0281 0.84972,0.0674 1.27561,0.08 0.22518,-0.17935 0.41074,-0.41711 0.62057,-0.61911 0.48958,-0.51554 0.99957,-1.01421 1.46493,-1.55137 -0.0126,-0.24633 -0.0969,-0.48986 -0.13946,-0.73412 -0.16455,-0.71934 -0.31147,-1.4443 -0.50507,-2.15607 -0.23202,-0.13563 -0.49772,-0.21954 -0.74229,-0.33512 -0.79431,-0.33544 -1.58362,-0.68721 -2.38475,-1.00391 l -0.005,-1.7e-4 -0.004,4e-5 z"
         id="path4878"
         transform="translate(0,796.3622)" />
      <path
         style="fill:#5240c0;fill-opacity:1;stroke:#000000;stroke-width:0.00455428;stroke-miterlimit:4;stroke-dasharray:none;stroke-opacity:1"
         d="m 115.84782,132.15633 c -0.9983,0.15808 -1.99596,0.32124 -2.99191,0.49339 -0.0929,0.0677 0.0172,0.19192 0.0252,0.28012 0.54374,1.65823 1.35572,3.23266 2.41395,4.62116 0.0582,0.0926 0.1603,0.0327 0.1996,-0.0427 0.78,-0.88052 1.55987,-1.76243 2.3117,-2.66686 -0.0104,-0.13075 -0.14951,-0.22419 -0.20869,-0.34001 -0.56345,-0.77672 -1.12703,-1.55335 -1.6962,-2.32589 -0.018,-0.007 -0.0323,-0.0262 -0.0536,-0.0192 z"
         id="path4880"
         transform="translate(0,796.3622)" />
      <path
         style="fill:#40c091;fill-opacity:1;stroke:#000000;stroke-width:0.00455428;stroke-miterlimit:4;stroke-dasharray:none;stroke-opacity:1"
         d="m 131.69575,133.61383 c -0.4658,0.63612 -0.89762,1.29838 -1.34866,1.94565 -0.29345,0.43888 -0.60952,0.86842 -0.88885,1.31313 0.091,0.19567 0.25649,0.37013 0.37619,0.55757 0.79622,1.10843 1.57362,2.23063 2.38176,3.33034 0.0318,0.072 0.12445,0.10747 0.1681,0.024 0.9652,-1.07208 1.92394,-2.15073 2.86102,-3.24741 0.0151,-0.13635 -0.0728,-0.27223 -0.0966,-0.4075 -0.29843,-0.98302 -0.59115,-1.96823 -0.91001,-2.94469 -0.12923,-0.0819 -0.30303,-0.0772 -0.44862,-0.12566 -0.684,-0.155 -1.36964,-0.30265 -2.05457,-0.45357 l -0.0216,0.004 -0.0181,0.004 z"
         id="path4882"
         transform="translate(0,796.3622)" />
      <path
         style="fill:#5240c0;fill-opacity:1;stroke:#000000;stroke-width:0.00455428;stroke-miterlimit:4;stroke-dasharray:none;stroke-opacity:1"
         d="m 135.37966,137.60905 c -0.22878,0.18345 -0.40813,0.42746 -0.61301,0.63819 -0.81059,0.90623 -1.62353,1.81101 -2.41352,2.73515 -0.0498,0.5181 -0.0493,1.044 -0.0748,1.56519 0.002,0.23484 -0.0351,0.47481 -0.008,0.70727 0.0859,0.0923 0.22448,-0.0173 0.32574,-0.0296 1.0623,-0.32825 2.09638,-0.75075 3.06812,-1.29286 1.6627,-0.91698 3.15838,-2.13598 4.39541,-3.57604 0.0619,-0.0454 0.0893,-0.17556 -0.0157,-0.18084 -1.54819,-0.20079 -3.09782,-0.39288 -4.64906,-0.56822 l -0.0149,0.002 z"
         id="path4884"
         transform="translate(0,796.3622)" />
      <path
         style="fill:#408ec0;fill-opacity:1;stroke:#000000;stroke-width:0.00455428;stroke-miterlimit:4;stroke-dasharray:none;stroke-opacity:1"
         d="m 136.56699,132.40242 c -0.73388,0.58024 -1.49158,1.13244 -2.20216,1.74101 -0.0314,0.12116 0.0667,0.24833 0.082,0.37056 0.30002,0.98478 0.59538,1.97135 0.91233,2.95074 0.12172,0.0776 0.29078,0.0486 0.42953,0.0857 1.47739,0.19274 2.95652,0.37797 4.43601,0.55032 0.1525,-0.0613 0.22362,-0.23665 0.33273,-0.35048 0.43342,-0.56756 0.84442,-1.15591 1.19586,-1.77792 0.0649,-0.12441 -0.13003,-0.16682 -0.19514,-0.23589 -1.63803,-1.12108 -3.28784,-2.22473 -4.93255,-3.33598 -0.0195,0.001 -0.0417,-0.0178 -0.0586,0.002 z"
         id="path4886"
         transform="translate(0,796.3622)" />
      <path
         style="fill:#408ec0;fill-opacity:1;stroke:#000000;stroke-width:0.00910855;stroke-miterlimit:4;stroke-dasharray:none;stroke-opacity:1"
         d="m 140.87082,128.53725 c -0.67085,0.26019 -1.31374,0.60738 -1.97517,0.89717 -0.67294,0.32862 -1.37974,0.61088 -2.0263,0.9816 -0.12645,0.61404 -0.19116,1.24974 -0.19732,1.87661 0.5842,0.45854 1.23792,0.85064 1.8495,1.28195 1.08985,0.73268 2.17236,1.47725 3.27478,2.19058 0.19283,-0.0361 0.23035,-0.31733 0.33794,-0.4573 0.92831,-1.834 1.51114,-3.83758 1.71562,-5.88258 -0.27002,-0.18131 -0.65285,-0.21097 -0.96616,-0.33408 -0.66608,-0.17726 -1.31424,-0.44489 -1.99545,-0.55464 l -0.0174,6.9e-4 z"
         id="path4888"
         transform="translate(0,796.3622)" />
      <path
         style="fill:#c08840;fill-opacity:1;stroke:#000000;stroke-width:0.00910855;stroke-miterlimit:4;stroke-dasharray:none;stroke-opacity:1"
         d="m 133.58509,128.3401 c -0.38788,0.0413 -0.80463,-0.006 -1.17478,0.11886 -0.62901,0.91246 -1.21403,1.85474 -1.82067,2.78225 0.23046,0.58823 0.56719,1.15503 0.84154,1.73358 0.1505,0.19777 0.15917,0.58351 0.47287,0.58074 0.76987,0.1549 1.53384,0.38061 2.31046,0.48088 0.60162,-0.31706 1.1016,-0.80085 1.64942,-1.20086 0.21464,-0.20045 0.51004,-0.34344 0.67647,-0.58167 0.0762,-0.59446 0.17607,-1.19503 0.18006,-1.79315 -0.26169,-0.45018 -0.69854,-0.77436 -1.04029,-1.16252 -0.34076,-0.33044 -0.65592,-0.69955 -1.01233,-1.00636 -0.36092,0.0161 -0.72184,0.0322 -1.08275,0.0482 z"
         id="path4890"
         transform="translate(0,796.3622)" />
      <path
         style="fill:#40bec0;fill-opacity:1;stroke:#000000;stroke-width:0.00910855;stroke-miterlimit:4;stroke-dasharray:none;stroke-opacity:1"
         d="m 128.04062,125.4232 c -0.61,0.70036 -1.19755,1.44235 -1.75759,2.19089 -0.073,0.1873 0.13297,0.38144 0.16668,0.56572 0.37399,0.84382 0.71653,1.70869 1.14871,2.52253 0.93432,0.22885 1.89673,0.35033 2.84525,0.50978 0.34429,-0.37327 0.58631,-0.8455 0.88133,-1.26209 0.33286,-0.53805 0.71338,-1.05527 0.99416,-1.62115 -0.54467,-0.96068 -1.16404,-1.88517 -1.74075,-2.82963 -0.72304,-0.0739 -1.47234,-0.0666 -2.20634,-0.0782 -0.11048,7e-4 -0.22097,0.001 -0.33145,0.002 z"
         id="path4892"
         transform="translate(0,796.3622)" />
      <path
         style="fill:#40bec0;fill-opacity:1;stroke:#000000;stroke-width:0.00910855;stroke-miterlimit:4;stroke-dasharray:none;stroke-opacity:1"
         d="m 132.64009,122.60004 c -0.63701,0.93888 -1.34418,1.83385 -1.92495,2.80901 -0.0815,0.21627 0.20966,0.38226 0.26728,0.57598 0.47668,0.76822 0.95397,1.53606 1.43126,2.30389 0.59704,0.0361 1.21918,-0.0282 1.82543,-0.0469 0.20143,-0.0366 0.51069,0.0554 0.5538,-0.22425 0.50617,-1.07894 1.05532,-2.14356 1.52911,-3.23446 -0.46782,-0.72973 -1.06274,-1.37591 -1.5897,-2.06487 -0.67132,-0.11183 -1.3674,-0.0955 -2.04916,-0.13958 l -0.0397,0.0195 -0.003,0.002 z"
         id="path4894"
         transform="translate(0,796.3622)" />
      <path
         style="fill:#40c091;fill-opacity:1;stroke:#000000;stroke-width:0.00910855;stroke-miterlimit:4;stroke-dasharray:none;stroke-opacity:1"
         d="m 136.40462,124.84937 c -0.53949,1.11957 -1.07894,2.23915 -1.61835,3.35876 0.2316,0.34954 0.59859,0.63104 0.88154,0.95451 0.38142,0.37228 0.72882,0.78727 1.13965,1.12589 0.95105,-0.38317 1.87591,-0.8553 2.81323,-1.27988 0.37849,-0.19099 0.78387,-0.34389 1.14526,-0.56117 -0.067,-0.30438 -0.29627,-0.56841 -0.43267,-0.85104 -0.52257,-0.8982 -1.06558,-1.78428 -1.59862,-2.67629 -0.74613,-0.11527 -1.52496,-0.0715 -2.2842,-0.0991 l -0.0376,0.0232 -0.008,0.005 z"
         id="path4896"
         transform="translate(0,796.3622)" />
      <path
         style="fill:#5240c0;fill-opacity:1;stroke:#000000;stroke-width:0.00910855;stroke-miterlimit:4;stroke-dasharray:none;stroke-opacity:1"
         d="m 141.99001,120.56081 c -1.06527,1.41693 -2.12739,2.83647 -3.19148,4.25438 0.17033,0.426 0.47995,0.81714 0.70327,1.22988 0.47904,0.77061 0.91796,1.57553 1.42608,2.323 0.91887,0.37279 1.88849,0.61276 2.83576,0.90218 0.17226,-0.0879 0.0864,-0.35922 0.12054,-0.51866 0.0189,-1.5692 -0.0486,-3.15554 -0.47294,-4.67556 -0.32003,-1.22132 -0.75315,-2.4346 -1.37851,-3.52713 l -0.0426,0.0119 -1.5e-4,5e-5 z"
         id="path4898"
         transform="translate(0,796.3622)" />
      <path
         style="fill:#40c091;fill-opacity:1;stroke:#000000;stroke-width:0.00910855;stroke-miterlimit:4;stroke-dasharray:none;stroke-opacity:1"
         d="m 136.70544,119.69583 c -0.6275,0.97607 -1.29355,1.92981 -1.88464,2.92795 0.16888,0.34839 0.47471,0.63584 0.70071,0.95503 0.31625,0.37705 0.60347,0.79083 0.93956,1.14333 0.71613,-0.006 1.43386,0.0821 2.148,0.0601 0.36613,-0.2495 0.57527,-0.67635 0.86306,-1.00666 0.82738,-1.11251 1.67772,-2.21007 2.46971,-3.34767 -0.055,-0.20747 -0.16535,-0.45297 -0.35778,-0.57021 -1.61061,-0.0692 -3.22371,-0.16523 -4.83685,-0.18437 l -0.0389,0.021 -0.003,0.002 z"
         id="path4900"
         transform="translate(0,796.3622)" />
      <path
         style="fill:#5240c0;fill-opacity:1;stroke:#000000;stroke-width:0.00910855;stroke-miterlimit:4;stroke-dasharray:none;stroke-opacity:1"
         d="m 136.35421,114.50543 c -0.41298,0.49959 -0.75292,1.08075 -1.13262,1.61457 -0.0839,0.17778 -0.29034,0.33019 -0.30265,0.52557 0.59963,0.97147 1.18541,1.9591 1.8224,2.90309 1.56927,0.10508 3.14375,0.16826 4.71618,0.21475 0.19978,-0.0257 -0.01,-0.24769 -0.0543,-0.33254 -1.28928,-1.96555 -2.97498,-3.6946 -4.99164,-4.91396 -0.0181,-0.007 -0.0375,-0.014 -0.0573,-0.0115 z"
         id="path4902"
         transform="translate(0,796.3622)" />
      <path
         style="fill:#40bec0;fill-opacity:1;stroke:#000000;stroke-width:0.00910855;stroke-miterlimit:4;stroke-dasharray:none;stroke-opacity:1"
         d="m 134.77065,116.66974 c -0.71922,0.0695 -1.45289,0.13435 -2.15694,0.26101 -0.51835,1.02643 -1.066,2.04136 -1.55002,3.0848 0.27054,0.53208 0.64793,1.02023 0.96485,1.53094 0.21281,0.29695 0.38783,0.63307 0.63123,0.90207 0.66533,0.11205 1.34536,0.11514 2.01826,0.15226 0.41135,-0.52548 0.75087,-1.13059 1.134,-1.68713 0.26702,-0.43548 0.59076,-0.85071 0.82107,-1.30081 -0.57256,-0.98889 -1.1775,-1.96116 -1.79711,-2.92165 -0.0154,-0.0217 -0.0421,-0.0226 -0.0653,-0.0215 z"
         id="path4904"
         transform="translate(0,796.3622)" />
      <path
         style="fill:#408ec0;fill-opacity:1;stroke:#000000;stroke-width:0.00910855;stroke-miterlimit:4;stroke-dasharray:none;stroke-opacity:1"
         d="m 130.44825,112.29926 c -0.24767,0.0225 -0.15484,0.36787 -0.21544,0.53264 -0.0396,0.44388 -0.1423,0.89523 -0.12146,1.3381 0.65828,0.8186 1.43077,1.54131 2.16962,2.287 0.18386,0.13762 0.32932,0.44114 0.60344,0.34009 0.64565,-0.0821 1.30838,-0.12291 1.94018,-0.26304 0.47695,-0.68011 0.97117,-1.35686 1.40774,-2.06039 -0.12598,-0.23681 -0.44385,-0.31007 -0.65678,-0.45635 -1.5988,-0.84692 -3.3293,-1.47979 -5.1273,-1.71805 z"
         id="path4906"
         transform="translate(0,796.3622)" />
      <path
         style="fill:#40c091;fill-opacity:1;stroke:#000000;stroke-width:0.00910855;stroke-miterlimit:4;stroke-dasharray:none;stroke-opacity:1"
         d="m 128.52408,115.13192 c -0.61611,0.36299 -1.23941,0.71415 -1.84727,1.09095 0.017,0.35471 0.20555,0.7148 0.28806,1.07157 0.28123,0.88242 0.51698,1.78408 0.85314,2.64653 0.4769,0.0819 0.98346,0.0309 1.47083,0.0514 0.55529,-0.0147 1.12817,0.0319 1.67254,-0.0221 0.53045,-1.01325 1.04727,-2.03912 1.57245,-3.05724 -0.21511,-0.3366 -0.57107,-0.6036 -0.83982,-0.9137 -0.55649,-0.56662 -1.10068,-1.14589 -1.67389,-1.69583 -0.35385,0.1073 -0.67382,0.37856 -1.01475,0.5484 -0.16043,0.0933 -0.32086,0.18666 -0.48129,0.27999 z"
         id="path4908"
         transform="translate(0,796.3622)" />
      <path
         style="fill:#40bec0;fill-opacity:1;stroke:#000000;stroke-width:0.00910855;stroke-miterlimit:4;stroke-dasharray:none;stroke-opacity:1"
         d="m 128.08317,120.06164 c -0.1914,-0.0237 -0.38457,-2.2e-4 -0.47699,0.19456 -0.38864,0.48711 -0.8022,0.96336 -1.13601,1.4887 0.47309,1.19995 1.05302,2.36253 1.57442,3.5446 0.5235,0.082 1.08483,0.0477 1.62329,0.0777 0.30924,-0.007 0.63246,0.0419 0.93306,-0.005 0.64447,-0.93461 1.32651,-1.85107 1.9455,-2.79882 -0.22799,-0.53445 -0.61637,-0.99246 -0.92323,-1.48538 -0.23601,-0.32255 -0.43087,-0.69053 -0.69176,-0.98561 -0.9494,-0.0114 -1.89877,-0.0334 -2.84828,-0.0306 z"
         id="path4910"
         transform="translate(0,796.3622)" />
      <path
         style="fill:#40bec0;fill-opacity:1;stroke:#000000;stroke-width:0.00910855;stroke-miterlimit:4;stroke-dasharray:none;stroke-opacity:1"
         d="m 126.20423,121.76113 c -0.92922,0.0409 -1.8671,0.0132 -2.79002,0.13077 -0.25527,0.15306 -0.37683,0.46958 -0.57466,0.68663 -0.26046,0.3894 -0.58894,0.7531 -0.79035,1.17229 0.57186,1.21239 1.17418,2.41292 1.80022,3.59837 0.60938,0.13769 1.25319,0.15828 1.87797,0.22625 0.21797,0.01 0.48893,0.0887 0.59129,-0.17273 0.54892,-0.6766 1.09788,-1.35318 1.64684,-2.02974 -0.15897,-0.50909 -0.44301,-0.99949 -0.64953,-1.50147 -0.31556,-0.69425 -0.62749,-1.39017 -0.94888,-2.08171 -0.0407,-0.0515 -0.10927,-0.0201 -0.16288,-0.0287 z"
         id="path4912"
         transform="translate(0,796.3622)" />
      <path
         style="fill:#40bec0;fill-opacity:1;stroke:#000000;stroke-width:0.00910855;stroke-miterlimit:4;stroke-dasharray:none;stroke-opacity:1"
         d="m 124.58208,115.52043 c -0.94848,0.91137 -1.94935,1.77314 -2.86244,2.71863 0.24754,0.6638 0.60072,1.30097 0.89438,1.95154 0.26594,0.51954 0.48205,1.08408 0.77915,1.57548 0.99359,-0.0272 2.0055,-0.0307 2.9931,-0.1239 0.42546,-0.55921 0.91514,-1.07878 1.28387,-1.67687 -0.32007,-1.2261 -0.71213,-2.43727 -1.10425,-3.64352 -0.10851,-0.19286 -0.39759,-0.19299 -0.57688,-0.30182 -0.46652,-0.16352 -0.93486,-0.39081 -1.40693,-0.49954 z"
         id="path4914"
         transform="translate(0,796.3622)" />
      <path
         style="fill:#408ec0;fill-opacity:1;stroke:#000000;stroke-width:0.00910855;stroke-miterlimit:4;stroke-dasharray:none;stroke-opacity:1"
         d="m 127.83889,112.1161 c -1.37633,0.005 -2.76378,0.16633 -4.08209,0.56649 -0.0778,0.15292 0.10081,0.34821 0.11679,0.51345 0.26097,0.74283 0.48696,1.50876 0.77806,2.23419 0.64784,0.23019 1.28445,0.52114 1.94092,0.71237 1.13015,-0.63634 2.26551,-1.27332 3.3692,-1.9511 0.11296,-0.62829 0.20118,-1.26837 0.2454,-1.90476 -0.20521,-0.13327 -0.49867,-0.0749 -0.73616,-0.11916 -0.54321,-0.0358 -1.08769,-0.0545 -1.63212,-0.0515 z"
         id="path4916"
         transform="translate(0,796.3622)" />
      <path
         style="fill:#408ec0;fill-opacity:1;stroke:#000000;stroke-width:0.00910855;stroke-miterlimit:4;stroke-dasharray:none;stroke-opacity:1"
         d="m 123.543,112.74362 c -0.86041,0.20595 -1.67593,0.57701 -2.47729,0.94689 -1.50014,0.73188 -2.88099,1.69996 -4.09876,2.84026 0.0398,0.22104 0.32718,0.38199 0.46031,0.57934 0.18606,0.18893 0.32877,0.4643 0.63391,0.43996 1.17018,0.19863 2.33786,0.43299 3.50733,0.62227 0.94285,-0.79787 1.83674,-1.65774 2.72326,-2.51876 0.12014,-0.12173 0.30144,-0.28274 0.17077,-0.46749 -0.28234,-0.80968 -0.5314,-1.64035 -0.85333,-2.43099 -0.0197,-0.0122 -0.0438,-0.0129 -0.0662,-0.0115 z"
         id="path4918"
         transform="translate(0,796.3622)" />
      <path
         style="fill:#40bec0;fill-opacity:1;stroke:#000000;stroke-width:0.00910855;stroke-miterlimit:4;stroke-dasharray:none;stroke-opacity:1"
         d="m 117.85723,117.61534 c -0.12083,0.16025 -0.0446,0.41896 -0.0927,0.61374 -0.0966,1.46836 -0.24472,2.93565 -0.27691,4.40696 0.0362,0.2305 0.33703,0.30565 0.47399,0.47336 0.41547,0.31524 0.80071,0.69211 1.25217,0.94974 0.90001,-0.11781 1.80648,-0.22793 2.6974,-0.39145 0.50199,-0.57634 0.91621,-1.22441 1.37347,-1.83621 -0.19925,-0.55817 -0.51513,-1.09522 -0.75876,-1.64535 -0.31531,-0.62987 -0.59155,-1.28843 -0.94056,-1.8964 -1.23393,-0.26125 -2.48056,-0.49104 -3.7281,-0.67439 z"
         id="path4920"
         transform="translate(0,796.3622)" />
      <path
         style="fill:#5240c0;fill-opacity:1;stroke:#000000;stroke-width:0.00910855;stroke-miterlimit:4;stroke-dasharray:none;stroke-opacity:1"
         d="m 116.83515,116.66076 c -1.99079,1.99862 -3.49172,4.50769 -4.20147,7.24387 -0.0569,0.15654 0.12114,0.1865 0.22671,0.11455 1.48842,-0.43014 2.97731,-0.86208 4.45338,-1.33213 0.10854,-0.34599 0.0751,-0.74359 0.12659,-1.10802 0.095,-1.33992 0.21151,-2.68609 0.27272,-4.02351 -0.27815,-0.30516 -0.53995,-0.64073 -0.84608,-0.91021 l -0.0319,0.0155 z"
         id="path4922"
         transform="translate(0,796.3622)" />
      <path
         style="fill:#40c091;fill-opacity:1;stroke:#000000;stroke-width:0.00910855;stroke-miterlimit:4;stroke-dasharray:none;stroke-opacity:1"
         d="m 121.8429,123.78353 c -0.88411,0.11188 -1.76987,0.23117 -2.64543,0.39404 -0.1845,0.59196 -0.30334,1.21299 -0.44219,1.8245 -0.0293,0.12904 -0.0595,0.25765 -0.0914,0.38548 -0.13446,0.65979 -0.32926,1.31978 -0.42248,1.98121 0.46822,0.31482 1.02812,0.4828 1.53765,0.72498 0.5287,0.21185 1.04729,0.463 1.59159,0.62864 0.75103,-0.66406 1.46797,-1.38139 2.16906,-2.10259 0.10109,-0.10664 0.26732,-0.24121 0.13396,-0.39378 -0.56344,-1.15293 -1.13349,-2.3057 -1.76501,-3.42263 -0.0152,-0.0192 -0.0428,-0.0237 -0.0658,-0.0199 z"
         id="path4924"
         transform="translate(0,796.3622)" />
      <path
         style="fill:#40c091;fill-opacity:1;stroke:#000000;stroke-width:0.00910855;stroke-miterlimit:4;stroke-dasharray:none;stroke-opacity:1"
         d="m 117.39198,122.81428 c -1.12068,0.23906 -2.20737,0.62217 -3.30913,0.93634 -0.50952,0.17481 -1.05513,0.28736 -1.53972,0.51335 -0.14838,0.57346 -0.25061,1.16149 -0.31496,1.75076 0.40221,0.32701 0.9009,0.5665 1.3398,0.86023 1.12133,0.6786 2.22067,1.40066 3.36998,2.02914 0.39521,-0.16425 0.83856,-0.28085 1.179,-0.54898 0.35275,-1.3747 0.64836,-2.7709 0.95924,-4.15459 -0.28713,-0.39183 -0.73198,-0.64652 -1.09177,-0.96945 -0.20189,-0.11518 -0.36078,-0.3754 -0.59244,-0.4168 z"
         id="path4926"
         transform="translate(0,796.3622)" />
      <path
         style="fill:#5240c0;fill-opacity:1;stroke:#000000;stroke-width:0.00910855;stroke-miterlimit:4;stroke-dasharray:none;stroke-opacity:1"
         d="m 112.21574,126.20661 c -0.14516,0.74133 -0.084,1.50765 -0.0996,2.25951 0.011,1.36705 0.26691,2.72461 0.61502,4.0411 0.1928,0.0916 0.43752,-0.0356 0.64525,-0.0365 0.81877,-0.13985 1.65067,-0.2335 2.45568,-0.43726 0.32632,-0.80956 0.56193,-1.66389 0.83841,-2.49515 0.0244,-0.17904 0.18306,-0.38174 0.11375,-0.55045 -1.47839,-0.96739 -2.99569,-1.87388 -4.49425,-2.80961 -0.12465,-0.007 -0.0237,0.0639 -0.0742,0.0283 z"
         id="path4928"
         transform="translate(0,796.3622)" />
      <animateTransform
         attributeType="xml"
         attributeName="transform"
         type="rotate"
         from="0 127.90153 924.26066"
         to="360 127.90153 924.26066"
         dur="30s"
         repeatCount="indefinite" />
    </g>
    <text
       id="LogoName"
       y="926.71893"
       x="113.08334"
       style="font-style:normal;font-variant:normal;font-weight:normal;font-stretch:normal;font-size:8.75px;line-height:125%;font-family:Motorwerk;-inkscape-font-specification:Motorwerk;letter-spacing:0px;word-spacing:0px;fill:#000000;fill-opacity:1;stroke:none;stroke-width:1px;stroke-linecap:butt;stroke-linejoin:miter;stroke-opacity:1"
       xml:space="preserve"
       sodipodi:linespacing="125%"><tspan
         y="926.71893"
         x="113.08334"
         id="tspanLogoName"
         style="font-style:normal;font-variant:normal;font-weight:normal;font-stretch:normal;font-size:10.66666698px;font-family:Motorwerk;-inkscape-font-specification:Motorwerk">BDSim</tspan></text>
  </g>
</svg>
